<svg width="395" height="426" viewBox="0 0 395 426" fill="none" xmlns="http://www.w3.org/2000/svg">
<path d="M307.234 0C324.696 0 341.443 6.73243 353.791 18.7162C366.138 30.7 373.075 46.9535 373.075 63.9012V319.506C378.213 319.511 383.186 321.265 387.128 324.463C391.07 327.661 393.731 332.1 394.648 337.006C395.564 341.913 394.678 346.976 392.144 351.314C389.609 355.651 385.587 358.988 380.778 360.744L205.203 424.645C200.237 426.452 194.763 426.452 189.797 424.645L14.2216 360.744C9.41264 358.988 5.39055 355.651 2.8561 351.314C0.321664 346.976 -0.564467 341.913 0.352087 337.006C1.26864 332.1 3.92978 327.661 7.87189 324.463C11.814 321.265 16.7872 319.511 21.925 319.506V63.9012C21.925 46.9535 28.8618 30.7 41.2093 18.7162C53.5568 6.73243 70.3036 0 87.7656 0H307.234ZM307.234 42.6008H87.7656C82.3901 42.6015 77.2018 44.5169 73.1847 47.9837C69.1677 51.4506 66.6013 56.2277 65.9724 61.409L65.8188 63.9012V334.033L197.5 381.959L329.181 334.033V63.9012C329.181 58.684 327.207 53.6485 323.635 49.7498C320.063 45.8511 315.141 43.3603 309.802 42.7499L307.234 42.6008ZM197.5 63.9012C202.876 63.9019 208.064 65.8173 212.081 69.2841C216.098 72.751 218.664 77.5281 219.293 82.7094L219.447 85.2016V106.502H263.341C268.934 106.508 274.315 108.587 278.382 112.314C282.45 116.041 284.898 121.134 285.225 126.554C285.553 131.974 283.736 137.31 280.146 141.474C276.556 145.637 271.463 148.312 265.908 148.954L263.341 149.103H153.606C150.864 149.098 148.219 150.09 146.193 151.883C144.167 153.676 142.905 156.14 142.657 158.791C142.41 161.441 143.193 164.086 144.854 166.203C146.515 168.321 148.933 169.759 151.631 170.233L153.606 170.403H241.394C255.657 170.37 269.373 175.728 279.634 185.342C289.896 194.956 295.897 208.071 296.365 221.907C296.833 235.742 291.731 249.211 282.142 259.457C272.552 269.704 259.228 275.924 244.993 276.799L241.394 276.905H219.447V298.206C219.441 303.635 217.299 308.856 213.459 312.804C209.619 316.752 204.37 319.128 198.786 319.446C193.202 319.764 187.703 318.001 183.414 314.516C179.124 311.032 176.367 306.089 175.707 300.698L175.553 298.206V276.905H131.659C126.066 276.899 120.685 274.82 116.618 271.093C112.55 267.366 110.102 262.273 109.775 256.853C109.447 251.433 111.264 246.097 114.854 241.933C118.444 237.77 123.537 235.095 129.092 234.453L131.659 234.304H241.394C244.136 234.309 246.781 233.318 248.807 231.524C250.833 229.731 252.095 227.267 252.343 224.616C252.59 221.966 251.807 219.321 250.146 217.204C248.485 215.086 246.067 213.649 243.369 213.174L241.394 213.004H153.606C139.343 213.038 125.627 207.679 115.366 198.065C105.104 188.451 99.1032 175.336 98.6351 161.501C98.1671 147.665 103.269 134.197 112.858 123.95C122.448 113.703 135.772 107.483 150.007 106.608L153.606 106.502H175.553V85.2016C175.553 79.5524 177.865 74.1345 181.981 70.1399C186.097 66.1453 191.679 63.9012 197.5 63.9012Z" fill="url(#paint0_linear_109_2)"/>
<defs>
<linearGradient id="paint0_linear_109_2" x1="334" y1="-7.85631e-06" x2="90.5" y2="401" gradientUnits="userSpaceOnUse">
<stop stop-color="#DE5900"/>
<stop offset="1" stop-color="#FF9B58"/>
</linearGradient>
</defs>
</svg>
